<svg width="60" height="60" viewBox="0 0 60 60" fill="none" xmlns="http://www.w3.org/2000/svg">
<g clip-path="url(#clip0_10_56)">
<path d="M56.25 45C56.25 45.9946 55.8549 46.9484 55.1516 47.6516C54.4484 48.3549 53.4946 48.75 52.5 48.75H7.5C6.50544 48.75 5.55161 48.3549 4.84835 47.6516C4.14509 46.9484 3.75 45.9946 3.75 45V22.5C3.75 21.5054 4.14509 20.5516 4.84835 19.8484C5.55161 19.1451 6.50544 18.75 7.5 18.75H11.895C14.8771 18.7484 17.7366 17.5628 19.845 15.4537L22.9575 12.3488C23.6588 11.6473 24.6094 11.2522 25.6012 11.25H34.3912C35.3857 11.2502 36.3394 11.6454 37.0425 12.3488L40.1475 15.4537C41.1924 16.4989 42.4329 17.328 43.7983 17.8936C45.1637 18.4592 46.6271 18.7502 48.105 18.75H52.5C53.4946 18.75 54.4484 19.1451 55.1516 19.8484C55.8549 20.5516 56.25 21.5054 56.25 22.5V45ZM7.5 15C5.51088 15 3.60322 15.7902 2.1967 17.1967C0.790176 18.6032 0 20.5109 0 22.5L0 45C0 46.9891 0.790176 48.8968 2.1967 50.3033C3.60322 51.7098 5.51088 52.5 7.5 52.5H52.5C54.4891 52.5 56.3968 51.7098 57.8033 50.3033C59.2098 48.8968 60 46.9891 60 45V22.5C60 20.5109 59.2098 18.6032 57.8033 17.1967C56.3968 15.7902 54.4891 15 52.5 15H48.105C46.116 14.9996 44.2087 14.2091 42.8025 12.8025L39.6975 9.6975C38.2913 8.29088 36.384 7.50042 34.395 7.5H25.605C23.616 7.50042 21.7087 8.29088 20.3025 9.6975L17.1975 12.8025C15.7913 14.2091 13.884 14.9996 11.895 15H7.5Z" fill="#CF5700"/>
<path d="M30 41.25C27.5136 41.25 25.129 40.2623 23.3709 38.5041C21.6127 36.746 20.625 34.3614 20.625 31.875C20.625 29.3886 21.6127 27.004 23.3709 25.2459C25.129 23.4877 27.5136 22.5 30 22.5C32.4864 22.5 34.871 23.4877 36.6291 25.2459C38.3873 27.004 39.375 29.3886 39.375 31.875C39.375 34.3614 38.3873 36.746 36.6291 38.5041C34.871 40.2623 32.4864 41.25 30 41.25ZM30 45C33.481 45 36.8194 43.6172 39.2808 41.1558C41.7422 38.6944 43.125 35.356 43.125 31.875C43.125 28.394 41.7422 25.0556 39.2808 22.5942C36.8194 20.1328 33.481 18.75 30 18.75C26.519 18.75 23.1806 20.1328 20.7192 22.5942C18.2578 25.0556 16.875 28.394 16.875 31.875C16.875 35.356 18.2578 38.6944 20.7192 41.1558C23.1806 43.6172 26.519 45 30 45ZM11.25 24.375C11.25 24.8723 11.0525 25.3492 10.7008 25.7008C10.3492 26.0525 9.87228 26.25 9.375 26.25C8.87772 26.25 8.40081 26.0525 8.04918 25.7008C7.69754 25.3492 7.5 24.8723 7.5 24.375C7.5 23.8777 7.69754 23.4008 8.04918 23.0492C8.40081 22.6975 8.87772 22.5 9.375 22.5C9.87228 22.5 10.3492 22.6975 10.7008 23.0492C11.0525 23.4008 11.25 23.8777 11.25 24.375Z" fill="#CF5700"/>
</g>
<defs>
<clipPath id="clip0_10_56">
<rect width="60" height="60" fill="white"/>
</clipPath>
</defs>
</svg>
