<svg width="60" height="60" viewBox="0 0 60 60" fill="none" xmlns="http://www.w3.org/2000/svg">
<path d="M15 41.25H7.5V52.5H15V41.25ZM33.75 26.25H26.25V52.5H33.75V26.25ZM52.5 7.5V52.5H45V7.5H52.5ZM45 3.75C44.0054 3.75 43.0516 4.14509 42.3484 4.84835C41.6451 5.55161 41.25 6.50544 41.25 7.5V52.5C41.25 53.4946 41.6451 54.4484 42.3484 55.1516C43.0516 55.8549 44.0054 56.25 45 56.25H52.5C53.4946 56.25 54.4484 55.8549 55.1516 55.1516C55.8549 54.4484 56.25 53.4946 56.25 52.5V7.5C56.25 6.50544 55.8549 5.55161 55.1516 4.84835C54.4484 4.14509 53.4946 3.75 52.5 3.75H45ZM22.5 26.25C22.5 25.2554 22.8951 24.3016 23.5984 23.5984C24.3016 22.8951 25.2554 22.5 26.25 22.5H33.75C34.7446 22.5 35.6984 22.8951 36.4016 23.5984C37.1049 24.3016 37.5 25.2554 37.5 26.25V52.5C37.5 53.4946 37.1049 54.4484 36.4016 55.1516C35.6984 55.8549 34.7446 56.25 33.75 56.25H26.25C25.2554 56.25 24.3016 55.8549 23.5984 55.1516C22.8951 54.4484 22.5 53.4946 22.5 52.5V26.25ZM3.75 41.25C3.75 40.2554 4.14509 39.3016 4.84835 38.5984C5.55161 37.8951 6.50544 37.5 7.5 37.5H15C15.9946 37.5 16.9484 37.8951 17.6516 38.5984C18.3549 39.3016 18.75 40.2554 18.75 41.25V52.5C18.75 53.4946 18.3549 54.4484 17.6516 55.1516C16.9484 55.8549 15.9946 56.25 15 56.25H7.5C6.50544 56.25 5.55161 55.8549 4.84835 55.1516C4.14509 54.4484 3.75 53.4946 3.75 52.5V41.25Z" fill="#CF5700"/>
</svg>
