<svg width="60" height="60" viewBox="0 0 60 60" fill="none" xmlns="http://www.w3.org/2000/svg">
<g clip-path="url(#clip0_10_65)">
<path d="M1.13772e-06 30C-0.00128491 26.6969 1.08774 23.4858 3.09806 20.8649C5.10838 18.244 7.92758 16.36 11.1181 15.5052C14.3087 14.6504 17.6922 14.8726 20.7436 16.1373C23.7949 17.4021 26.3435 19.6387 27.9938 22.5H52.5C52.7464 22.4996 52.9905 22.5477 53.2182 22.6416C53.446 22.7356 53.6531 22.8735 53.8275 23.0475L59.4525 28.6725C59.6271 28.8467 59.7656 29.0536 59.8602 29.2814C59.9547 29.5092 60.0034 29.7534 60.0034 30C60.0034 30.2466 59.9547 30.4908 59.8602 30.7186C59.7656 30.9464 59.6271 31.1533 59.4525 31.3275L53.8275 36.9525C53.6533 37.1271 53.4464 37.2656 53.2186 37.3602C52.9908 37.4547 52.7466 37.5034 52.5 37.5034C52.2534 37.5034 52.0092 37.4547 51.7814 37.3602C51.5536 37.2656 51.3467 37.1271 51.1725 36.9525L48.75 34.5263L46.3275 36.9525C46.1533 37.1271 45.9464 37.2656 45.7186 37.3602C45.4908 37.4547 45.2466 37.5034 45 37.5034C44.7534 37.5034 44.5092 37.4547 44.2814 37.3602C44.0536 37.2656 43.8467 37.1271 43.6725 36.9525L41.25 34.5263L38.8275 36.9525C38.6533 37.1271 38.4464 37.2656 38.2186 37.3602C37.9908 37.4547 37.7466 37.5034 37.5 37.5034C37.2534 37.5034 37.0092 37.4547 36.7814 37.3602C36.5536 37.2656 36.3467 37.1271 36.1725 36.9525L33.75 34.5263L31.3275 36.9525C31.1531 37.1265 30.946 37.2644 30.7182 37.3584C30.4905 37.4523 30.2464 37.5004 30 37.5H27.9938C26.3435 40.3613 23.7949 42.5979 20.7436 43.8627C17.6922 45.1274 14.3087 45.3497 11.1181 44.4948C7.92758 43.64 5.10838 41.756 3.09806 39.1351C1.08774 36.5142 -0.00128491 33.3031 1.13772e-06 30ZM15 18.75C12.9868 18.7508 11.0106 19.2918 9.27776 20.3165C7.54487 21.3413 6.11873 22.8123 5.1481 24.5761C4.17748 26.3399 3.69795 28.3318 3.75953 30.3441C3.82111 32.3564 4.42156 34.3153 5.49822 36.0164C6.57487 37.7176 8.0883 39.0986 9.88061 40.0155C11.6729 40.9324 13.6784 41.3516 15.6879 41.2292C17.6974 41.1069 19.6373 40.4475 21.3051 39.32C22.973 38.1924 24.3077 36.6379 25.17 34.8188C25.3222 34.4991 25.5619 34.2291 25.8612 34.04C26.1605 33.8508 26.5072 33.7503 26.8613 33.75H29.2238L32.4225 30.5475C32.5967 30.3729 32.8036 30.2344 33.0314 30.1398C33.2592 30.0453 33.5034 29.9967 33.75 29.9967C33.9966 29.9967 34.2408 30.0453 34.4686 30.1398C34.6964 30.2344 34.9033 30.3729 35.0775 30.5475L37.5 32.9738L39.9225 30.5475C40.0967 30.3729 40.3036 30.2344 40.5314 30.1398C40.7592 30.0453 41.0034 29.9967 41.25 29.9967C41.4966 29.9967 41.7408 30.0453 41.9686 30.1398C42.1964 30.2344 42.4033 30.3729 42.5775 30.5475L45 32.9738L47.4225 30.5475C47.5967 30.3729 47.8036 30.2344 48.0314 30.1398C48.2592 30.0453 48.5034 29.9967 48.75 29.9967C48.9966 29.9967 49.2408 30.0453 49.4686 30.1398C49.6964 30.2344 49.9033 30.3729 50.0775 30.5475L52.5 32.9738L55.4738 30L51.7238 26.25H26.8613C26.5072 26.2497 26.1605 26.1492 25.8612 25.96C25.5619 25.7709 25.3222 25.5009 25.17 25.1813C24.2576 23.2564 22.8175 21.6302 21.0171 20.4917C19.2167 19.3532 17.1301 18.7492 15 18.75Z" fill="#CF5700"/>
<path d="M15 30C15 30.9946 14.6049 31.9484 13.9017 32.6516C13.1984 33.3549 12.2446 33.75 11.25 33.75C10.2554 33.75 9.30161 33.3549 8.59835 32.6516C7.89509 31.9484 7.5 30.9946 7.5 30C7.5 29.0054 7.89509 28.0516 8.59835 27.3484C9.30161 26.6451 10.2554 26.25 11.25 26.25C12.2446 26.25 13.1984 26.6451 13.9017 27.3484C14.6049 28.0516 15 29.0054 15 30Z" fill="#CF5700"/>
</g>
<defs>
<clipPath id="clip0_10_65">
<rect width="60" height="60" fill="white"/>
</clipPath>
</defs>
</svg>
