<svg width="60" height="60" viewBox="0 0 60 60" fill="none" xmlns="http://www.w3.org/2000/svg">
<path d="M56.25 52.5C56.25 52.5 60 52.5 60 48.75C60 45 56.25 33.75 41.25 33.75C26.25 33.75 22.5 45 22.5 48.75C22.5 52.5 26.25 52.5 26.25 52.5H56.25ZM26.3325 48.75L26.25 48.735C26.2537 47.745 26.8763 44.8725 29.1 42.285C31.17 39.8587 34.8075 37.5 41.25 37.5C47.6888 37.5 51.3262 39.8625 53.4 42.285C55.6237 44.8725 56.2425 47.7488 56.25 48.735L56.22 48.7425L56.1675 48.75H26.3325ZM41.25 26.25C43.2391 26.25 45.1468 25.4598 46.5533 24.0533C47.9598 22.6468 48.75 20.7391 48.75 18.75C48.75 16.7609 47.9598 14.8532 46.5533 13.4467C45.1468 12.0402 43.2391 11.25 41.25 11.25C39.2609 11.25 37.3532 12.0402 35.9467 13.4467C34.5402 14.8532 33.75 16.7609 33.75 18.75C33.75 20.7391 34.5402 22.6468 35.9467 24.0533C37.3532 25.4598 39.2609 26.25 41.25 26.25ZM52.5 18.75C52.5 20.2274 52.209 21.6903 51.6436 23.0552C51.0783 24.4201 50.2496 25.6603 49.205 26.705C48.1603 27.7496 46.9201 28.5783 45.5552 29.1436C44.1903 29.709 42.7274 30 41.25 30C39.7726 30 38.3097 29.709 36.9448 29.1436C35.5799 28.5783 34.3397 27.7496 33.295 26.705C32.2504 25.6603 31.4217 24.4201 30.8564 23.0552C30.291 21.6903 30 20.2274 30 18.75C30 15.7663 31.1853 12.9048 33.295 10.795C35.4048 8.68526 38.2663 7.5 41.25 7.5C44.2337 7.5 47.0952 8.68526 49.205 10.795C51.3147 12.9048 52.5 15.7663 52.5 18.75ZM26.01 34.8C24.5091 34.3309 22.9631 34.0205 21.3975 33.8738C20.5176 33.7879 19.634 33.7466 18.75 33.75C3.75 33.75 0 45 0 48.75C0 51.25 1.25 52.5 3.75 52.5H19.56C19.0043 51.3292 18.7271 50.0457 18.75 48.75C18.75 44.9625 20.1637 41.0925 22.8375 37.86C23.7488 36.7575 24.81 35.7262 26.01 34.8ZM18.45 37.5C16.232 40.8354 15.0332 44.7445 15 48.75H3.75C3.75 47.775 4.365 44.8875 6.6 42.285C8.64375 39.9 12.195 37.575 18.45 37.5038V37.5ZM5.625 20.625C5.625 17.6413 6.81026 14.7798 8.92005 12.67C11.0298 10.5603 13.8913 9.375 16.875 9.375C19.8587 9.375 22.7202 10.5603 24.83 12.67C26.9397 14.7798 28.125 17.6413 28.125 20.625C28.125 23.6087 26.9397 26.4702 24.83 28.58C22.7202 30.6897 19.8587 31.875 16.875 31.875C13.8913 31.875 11.0298 30.6897 8.92005 28.58C6.81026 26.4702 5.625 23.6087 5.625 20.625ZM16.875 13.125C14.8859 13.125 12.9782 13.9152 11.5717 15.3217C10.1652 16.7282 9.375 18.6359 9.375 20.625C9.375 22.6141 10.1652 24.5218 11.5717 25.9283C12.9782 27.3348 14.8859 28.125 16.875 28.125C18.8641 28.125 20.7718 27.3348 22.1783 25.9283C23.5848 24.5218 24.375 22.6141 24.375 20.625C24.375 18.6359 23.5848 16.7282 22.1783 15.3217C20.7718 13.9152 18.8641 13.125 16.875 13.125Z" fill="#CF5700"/>
</svg>
