<svg width="60" height="60" viewBox="0 0 60 60" fill="none" xmlns="http://www.w3.org/2000/svg">
<g clip-path="url(#clip0_10_47)">
<path d="M-1.70522e-07 9.375C-1.70522e-07 7.88316 0.592632 6.45242 1.64752 5.39752C2.70242 4.34263 4.13316 3.75 5.625 3.75H46.875C48.3668 3.75 49.7976 4.34263 50.8525 5.39752C51.9074 6.45242 52.5 7.88316 52.5 9.375V48.855C52.5 49.98 52.3125 51.3075 51.6075 52.5H54.375C54.8723 52.5 55.3492 52.3025 55.7008 51.9508C56.0525 51.5992 56.25 51.1223 56.25 50.625V16.875C56.25 16.3777 56.4475 15.9008 56.7992 15.5492C57.1508 15.1975 57.6277 15 58.125 15C58.6223 15 59.0992 15.1975 59.4508 15.5492C59.8025 15.9008 60 16.3777 60 16.875V50.625C60 52.1168 59.4074 53.5476 58.3525 54.6025C57.2976 55.6574 55.8668 56.25 54.375 56.25H5.61375C4.87559 56.25 4.14468 56.1044 3.46286 55.8216C2.78103 55.5388 2.16168 55.1243 1.64025 54.6018C1.11881 54.0793 0.705543 53.4591 0.424088 52.7767C0.142633 52.0944 -0.00147944 51.3632 -1.70522e-07 50.625V9.375ZM45 52.5C46.3875 52.5 47.4525 51.7088 48.1987 50.8462C48.5437 50.4487 48.75 49.8 48.75 48.855V9.375C48.75 8.87772 48.5525 8.40081 48.2008 8.04918C47.8492 7.69754 47.3723 7.5 46.875 7.5H5.625C5.12772 7.5 4.6508 7.69754 4.29917 8.04918C3.94754 8.40081 3.75 8.87772 3.75 9.375V50.625C3.75 51.6675 4.58625 52.5 5.61375 52.5H45Z" fill="#CF5700"/>
<path d="M7.5 11.25H45V18.75H7.5V11.25ZM7.5 22.5H22.5V33.75H7.5V22.5ZM7.5 37.5H22.5V41.25H7.5V37.5ZM7.5 45H22.5V48.75H7.5V45ZM26.25 22.5H33.75V26.25H26.25V22.5ZM37.5 22.5H45V26.25H37.5V22.5ZM26.25 30H33.75V33.75H26.25V30ZM37.5 30H45V33.75H37.5V30ZM26.25 37.5H33.75V41.25H26.25V37.5ZM37.5 37.5H45V41.25H37.5V37.5ZM26.25 45H33.75V48.75H26.25V45ZM37.5 45H45V48.75H37.5V45Z" fill="#CF5700"/>
</g>
<defs>
<clipPath id="clip0_10_47">
<rect width="60" height="60" fill="white"/>
</clipPath>
</defs>
</svg>
