<svg width="60" height="60" viewBox="0 0 60 60" fill="none" xmlns="http://www.w3.org/2000/svg">
<g clip-path="url(#clip0_10_51)">
<path d="M31.875 1.875C31.875 1.37772 31.6775 0.900806 31.3258 0.549175C30.9742 0.197544 30.4973 0 30 0C29.5027 0 29.0258 0.197544 28.6742 0.549175C28.3225 0.900806 28.125 1.37772 28.125 1.875V3.8175C21.8274 4.26858 15.9034 6.97438 11.4389 11.4389C6.97438 15.9034 4.26858 21.8274 3.8175 28.125H1.875C1.37772 28.125 0.900806 28.3225 0.549175 28.6742C0.197544 29.0258 0 29.5027 0 30C0 30.4973 0.197544 30.9742 0.549175 31.3258C0.900806 31.6775 1.37772 31.875 1.875 31.875H3.8175C4.26858 38.1726 6.97438 44.0966 11.4389 48.5611C15.9034 53.0256 21.8274 55.7314 28.125 56.1825V58.125C28.125 58.6223 28.3225 59.0992 28.6742 59.4508C29.0258 59.8025 29.5027 60 30 60C30.4973 60 30.9742 59.8025 31.3258 59.4508C31.6775 59.0992 31.875 58.6223 31.875 58.125V56.1825C38.1726 55.7314 44.0966 53.0256 48.5611 48.5611C53.0256 44.0966 55.7314 38.1726 56.1825 31.875H58.125C58.6223 31.875 59.0992 31.6775 59.4508 31.3258C59.8025 30.9742 60 30.4973 60 30C60 29.5027 59.8025 29.0258 59.4508 28.6742C59.0992 28.3225 58.6223 28.125 58.125 28.125H56.1825C55.7314 21.8274 53.0256 15.9034 48.5611 11.4389C44.0966 6.97438 38.1726 4.26858 31.875 3.8175V1.875ZM7.575 28.125C8.01766 22.8229 10.3249 17.8493 14.0871 14.0871C17.8493 10.3249 22.8229 8.01766 28.125 7.575V9.375C28.125 9.87228 28.3225 10.3492 28.6742 10.7008C29.0258 11.0525 29.5027 11.25 30 11.25C30.4973 11.25 30.9742 11.0525 31.3258 10.7008C31.6775 10.3492 31.875 9.87228 31.875 9.375V7.575C37.1771 8.01766 42.1507 10.3249 45.9129 14.0871C49.6751 17.8493 51.9823 22.8229 52.425 28.125H50.625C50.1277 28.125 49.6508 28.3225 49.2992 28.6742C48.9475 29.0258 48.75 29.5027 48.75 30C48.75 30.4973 48.9475 30.9742 49.2992 31.3258C49.6508 31.6775 50.1277 31.875 50.625 31.875H52.425C51.9823 37.1771 49.6751 42.1507 45.9129 45.9129C42.1507 49.6751 37.1771 51.9823 31.875 52.425V50.625C31.875 50.1277 31.6775 49.6508 31.3258 49.2992C30.9742 48.9475 30.4973 48.75 30 48.75C29.5027 48.75 29.0258 48.9475 28.6742 49.2992C28.3225 49.6508 28.125 50.1277 28.125 50.625V52.425C22.8229 51.9823 17.8493 49.6751 14.0871 45.9129C10.3249 42.1507 8.01766 37.1771 7.575 31.875H9.375C9.87228 31.875 10.3492 31.6775 10.7008 31.3258C11.0525 30.9742 11.25 30.4973 11.25 30C11.25 29.5027 11.0525 29.0258 10.7008 28.6742C10.3492 28.3225 9.87228 28.125 9.375 28.125H7.575ZM30 37.5C31.9891 37.5 33.8968 36.7098 35.3033 35.3033C36.7098 33.8968 37.5 31.9891 37.5 30C37.5 28.0109 36.7098 26.1032 35.3033 24.6967C33.8968 23.2902 31.9891 22.5 30 22.5C28.0109 22.5 26.1032 23.2902 24.6967 24.6967C23.2902 26.1032 22.5 28.0109 22.5 30C22.5 31.9891 23.2902 33.8968 24.6967 35.3033C26.1032 36.7098 28.0109 37.5 30 37.5Z" fill="#CF5700"/>
</g>
<defs>
<clipPath id="clip0_10_51">
<rect width="60" height="60" fill="white"/>
</clipPath>
</defs>
</svg>
