<svg width="25" height="25" viewBox="0 0 25 25" fill="none" xmlns="http://www.w3.org/2000/svg">
<path fill-rule="evenodd" clip-rule="evenodd" d="M0 23.6111C0 23.2428 0.119724 22.8895 0.332833 22.629C0.545943 22.3685 0.834981 22.2222 1.13636 22.2222H23.8636C24.165 22.2222 24.4541 22.3685 24.6672 22.629C24.8803 22.8895 25 23.2428 25 23.6111C25 23.9795 24.8803 24.3327 24.6672 24.5932C24.4541 24.8537 24.165 25 23.8636 25H1.13636C0.834981 25 0.545943 24.8537 0.332833 24.5932C0.119724 24.3327 0 23.9795 0 23.6111ZM0 12.5C0 12.1316 0.119724 11.7784 0.332833 11.5179C0.545943 11.2574 0.834981 11.1111 1.13636 11.1111H23.8636C24.165 11.1111 24.4541 11.2574 24.6672 11.5179C24.8803 11.7784 25 12.1316 25 12.5C25 12.8684 24.8803 13.2216 24.6672 13.4821C24.4541 13.7426 24.165 13.8889 23.8636 13.8889H1.13636C0.834981 13.8889 0.545943 13.7426 0.332833 13.4821C0.119724 13.2216 0 12.8684 0 12.5ZM0 1.38889C0 1.02053 0.119724 0.667264 0.332833 0.406796C0.545943 0.146329 0.834981 0 1.13636 0H23.8636C24.165 0 24.4541 0.146329 24.6672 0.406796C24.8803 0.667264 25 1.02053 25 1.38889C25 1.75725 24.8803 2.11051 24.6672 2.37098C24.4541 2.63145 24.165 2.77778 23.8636 2.77778H1.13636C0.834981 2.77778 0.545943 2.63145 0.332833 2.37098C0.119724 2.11051 0 1.75725 0 1.38889Z" fill="#8C3A3A"/>
</svg>
